<svg width="64" height="64" viewBox="0 0 64 64" xmlns="http://www.w3.org/2000/svg"><rect width="64" height="64" fill="#3B82F6" rx="12"/><g transform="translate(32, 28)"><ellipse cx="0" cy="0" rx="18" ry="10" fill="#FFFFFF"/><path d="M -18 0 Q -18 12, 0 14 Q 18 12, 18 0" fill="#FFFFFF"/><circle cx="-8" cy="2" r="2.5" fill="#F0F0F0"/><circle cx="0" cy="1" r="2.5" fill="#F0F0F0"/><circle cx="8" cy="2" r="2.5" fill="#F0F0F0"/></g><line x1="42" y1="20" x2="52" y2="20" stroke="white" stroke-width="2.5" stroke-linecap="round" opacity="0.7"/><line x1="44" y1="26" x2="52" y2="26" stroke="white" stroke-width="2.5" stroke-linecap="round" opacity="0.7"/><g transform="translate(46, 42)"><rect x="-1" y="-10" width="2" height="16" fill="white"/><rect x="0" y="-10" width="3" height="3" fill="white"/><rect x="3" y="-10" width="3" height="3" fill="#1F2937"/><rect x="0" y="-7" width="3" height="3" fill="#1F2937"/><rect x="3" y="-7" width="3" height="3" fill="white"/></g></svg>